<?xml version="1.0" standalone="no"?>
<!DOCTYPE svg PUBLIC "-//W3C//DTD SVG 20010904//EN"
 "http://www.w3.org/TR/2001/REC-SVG-20010904/DTD/svg10.dtd">
<svg version="1.0" xmlns="http://www.w3.org/2000/svg"
 width="512.000000pt" height="512.000000pt" viewBox="0 0 512.000000 512.000000"
 preserveAspectRatio="xMidYMid meet">

<g transform="translate(0.000000,512.000000) scale(0.100000,-0.100000)"
fill="#000000" stroke="none">
<path d="M2506 4729 c-21 -5 -57 -22 -80 -37 -36 -25 -534 -380 -1961 -1401
-209 -149 -392 -285 -407 -301 -55 -59 -49 -153 12 -211 47 -45 98 -57 156
-36 21 7 136 83 254 168 118 85 532 381 920 659 388 277 807 577 932 667 125
90 229 163 232 163 3 0 429 -303 948 -673 519 -370 1036 -739 1150 -820 115
-82 225 -155 245 -163 94 -40 203 36 203 140 0 59 -24 102 -82 145 -115 88
-2337 1670 -2364 1684 -40 20 -111 28 -158 16z"/>
<path d="M2605 3956 c28 -20 66 -47 85 -60 54 -37 274 -193 285 -203 6 -5 33
-24 60 -43 28 -19 52 -37 53 -42 2 -4 8 -8 13 -8 5 0 39 -22 75 -50 36 -27 75
-55 87 -61 12 -7 24 -15 27 -18 3 -4 57 -44 120 -89 63 -45 120 -86 127 -92 6
-5 29 -22 51 -37 21 -16 66 -48 99 -73 103 -76 255 -184 282 -201 37 -24 141
-127 141 -141 0 -6 6 -19 13 -27 8 -9 22 -38 33 -66 18 -48 18 -88 15 -1080
-2 -566 -5 -1032 -7 -1034 -2 -2 -4 363 -4 811 0 643 -3 818 -12 822 -10 5
-10 7 0 12 6 3 12 10 12 15 0 16 -19 10 -37 -11 -10 -11 -21 -20 -26 -20 -5 0
-23 -16 -41 -35 -19 -19 -36 -35 -38 -35 -3 0 -26 -19 -51 -42 -26 -24 -65
-60 -88 -81 -40 -36 -41 -38 -23 -52 17 -13 17 -14 2 -15 -9 0 -18 -6 -21 -12
-2 -7 -2 -3 0 10 5 29 -6 28 -44 -6 -58 -50 -88 -72 -100 -72 -7 0 -13 -7 -13
-15 0 -18 -46 -65 -64 -65 -8 0 -39 -25 -69 -55 -30 -30 -59 -55 -64 -55 -5 0
-29 -20 -54 -45 -24 -24 -50 -45 -56 -45 -16 0 -17 -12 -1 -28 9 -9 9 -12 0
-12 -7 0 -12 5 -12 10 0 18 -15 10 -69 -40 -29 -28 -57 -50 -61 -50 -5 0 -11
-18 -15 -40 -4 -22 -10 -40 -14 -40 -5 0 -6 12 -3 28 l5 27 -28 -28 c-15 -15
-31 -27 -36 -27 -4 0 -27 -18 -51 -40 -24 -22 -46 -40 -49 -40 -3 0 -31 -24
-61 -52 -31 -29 -79 -73 -108 -98 -29 -25 -62 -55 -73 -67 -11 -13 -25 -23
-29 -23 -5 0 -19 -11 -32 -25 -13 -13 -26 -22 -29 -18 -4 3 -9 -2 -13 -11 -3
-9 -11 -13 -16 -10 -14 9 1 -39 16 -49 6 -5 1 -5 -11 -2 -32 9 -28 -2 7 -20
17 -9 30 -12 30 -8 0 4 14 -6 30 -22 17 -16 30 -36 30 -44 0 -11 3 -12 8 -4 4
7 7 -8 7 -32 0 -23 -3 -41 -6 -39 -3 2 -11 -8 -17 -21 -14 -30 -68 -65 -100
-65 -12 0 -49 14 -82 30 -33 17 -68 30 -78 30 -10 0 -47 -14 -81 -31 -76 -38
-119 -34 -164 14 l-29 32 4 -76 c4 -75 4 -76 -25 -92 -16 -9 -35 -17 -43 -17
-8 0 -14 -5 -14 -10 0 -16 -52 -70 -67 -70 -7 0 -13 -6 -13 -14 0 -8 -15 -26
-32 -40 -28 -22 -30 -26 -13 -26 11 0 27 9 35 20 18 25 40 26 40 1 0 -14 8
-21 28 -24 15 -2 -15 -5 -65 -6 -63 -1 -93 -5 -93 -13 0 -8 61 -10 238 -6 130
2 298 2 372 -1 82 -4 -117 -9 -505 -14 -803 -10 -1190 -9 -1222 4 -48 18 -7
-17 50 -42 l52 -24 1580 -3 c1422 -3 1586 -1 1640 13 108 29 194 112 229 221
15 44 16 153 14 1059 l-3 1010 -30 59 c-39 78 -78 115 -225 218 -139 97 -620
440 -690 492 -25 18 -142 102 -260 186 -118 84 -258 183 -310 220 -137 97
-174 113 -315 135 l-40 6 50 -35z m1372 -1872 c-3 -3 -12 -4 -19 -1 -8 3 -5 6
6 6 11 1 17 -2 13 -5z m-174 -161 c-7 -2 -21 -2 -30 0 -10 3 -4 5 12 5 17 0
24 -2 18 -5z m-318 -233 c3 -5 -1 -10 -10 -10 -9 0 -13 5 -10 10 3 6 8 10 10
10 2 0 7 -4 10 -10z m-158 -166 c-3 -3 -12 -4 -19 -1 -8 3 -5 6 6 6 11 1 17
-2 13 -5z m-537 -498 c0 -11 -19 -15 -25 -6 -3 5 1 10 9 10 9 0 16 -2 16 -4z
m-67 -31 c-7 -21 -12 -19 -10 4 0 11 5 18 9 15 4 -3 5 -11 1 -19z m74 -297
c-3 -8 -6 -5 -6 6 -1 11 2 17 5 13 3 -3 4 -12 1 -19z m-257 -27 c0 -18 -18
-21 -30 -6 -10 13 -9 15 9 15 11 0 21 -4 21 -9z m240 -1 c0 -5 -5 -10 -11 -10
-5 0 -7 5 -4 10 3 6 8 10 11 10 2 0 4 -4 4 -10z m-219 -23 c-10 -9 -11 -8 -5
6 3 10 9 15 12 12 3 -3 0 -11 -7 -18z"/>
<path d="M2244 2974 c-1 -13 2 -24 8 -24 5 0 6 5 3 10 -3 6 -2 10 2 10 5 0 14
-9 21 -20 7 -11 22 -20 35 -20 37 0 46 -13 50 -75 l3 -60 2 63 2 63 -37 15
c-21 9 -49 26 -63 39 l-25 24 -1 -25z"/>
<path d="M2756 2981 c-9 -10 -34 -26 -55 -36 -23 -10 -42 -26 -45 -39 -7 -26
-6 -96 1 -78 2 6 9 10 13 7 10 -6 84 37 94 54 7 11 19 111 13 111 -2 0 -11 -8
-21 -19z m-46 -61 c-8 -6 -22 -10 -30 -9 -9 0 -5 6 10 14 27 14 44 10 20 -5z
m-10 -24 c0 -2 -7 -6 -15 -10 -8 -3 -15 -1 -15 4 0 6 7 10 15 10 8 0 15 -2 15
-4z"/>
<path d="M2250 2920 c-8 -15 -5 -22 19 -39 36 -26 41 -26 41 -1 0 11 5 20 10
20 6 0 10 5 10 11 0 5 -4 8 -8 5 -5 -3 -20 1 -35 9 -24 12 -28 12 -37 -5z m35
-20 c3 -5 1 -10 -4 -10 -6 0 -11 5 -11 10 0 6 2 10 4 10 3 0 8 -4 11 -10z"/>
<path d="M2343 2875 c0 -22 2 -30 4 -17 2 12 2 30 0 40 -3 9 -5 -1 -4 -23z"/>
<path d="M3210 2681 c0 -11 4 -22 9 -25 4 -3 6 6 3 19 -5 30 -12 33 -12 6z"/>
<path d="M1776 2633 c-6 -14 -5 -15 5 -6 7 7 10 15 7 18 -3 3 -9 -2 -12 -12z"/>
<path d="M3237 2629 c7 -7 15 -10 18 -7 3 3 -2 9 -12 12 -14 6 -15 5 -6 -5z"/>
<path d="M3324 2628 c10 -6 22 -6 26 -2 5 5 -3 10 -18 11 -22 1 -24 0 -8 -9z"/>
<path d="M3320 2438 c-8 -13 -14 -25 -13 -28 1 -3 -6 -6 -15 -7 -9 -1 -31 -5
-49 -9 -23 -4 -47 1 -89 20 -31 14 -61 26 -68 26 -6 0 -49 -20 -96 -45 -47
-25 -126 -66 -177 -92 -50 -26 -90 -50 -87 -54 2 -4 -1 -11 -7 -15 -8 -4 -9
-3 -5 4 4 7 3 12 -3 12 -5 0 -14 -8 -20 -17 -5 -10 -12 -17 -15 -15 -21 9 -26
-5 -25 -70 1 -40 3 -66 6 -57 2 9 22 24 43 34 22 10 40 22 40 27 0 4 6 8 13 8
14 1 76 31 160 78 32 18 83 46 114 62 l56 29 45 -19 c68 -30 114 -35 151 -15
34 17 67 76 57 102 -4 10 -2 13 7 10 7 -3 13 3 13 14 0 14 -3 16 -15 6 -11
-10 -13 -8 -7 11 9 28 5 28 -14 0z"/>
<path d="M1694 2425 c0 -13 6 -21 13 -18 14 6 37 -33 24 -42 -6 -3 -14 3 -20
12 -10 17 -10 17 -11 1 0 -16 33 -58 45 -58 3 0 5 12 5 27 0 21 3 24 12 15 7
-7 23 -11 38 -11 l25 2 -25 4 c-14 3 -44 24 -66 48 -37 38 -42 40 -40 20z"/>
<path d="M1890 2419 c-26 -14 -28 -18 -10 -13 14 4 36 8 50 9 42 3 46 5 30 15
-21 13 -30 12 -70 -11z m57 5 c-3 -3 -12 -4 -19 -1 -8 3 -5 6 6 6 11 1 17 -2
13 -5z"/>
<path d="M2000 2405 c0 -3 15 -14 33 -25 39 -24 21 -27 -21 -3 -19 11 -35 14
-48 8 -17 -8 -16 -9 9 -13 15 -2 27 -8 27 -14 0 -14 -73 -3 -78 12 -5 15 -31
12 -48 -4 -19 -20 -18 -26 5 -26 11 0 22 -6 25 -12 5 -10 7 -10 12 0 8 16 49
15 63 -2 10 -12 17 -12 51 1 22 9 37 20 34 24 -3 5 0 9 5 9 6 0 11 -5 11 -11
0 -6 7 -8 16 -5 8 3 13 2 10 -3 -3 -5 6 -12 22 -16 15 -3 38 -13 51 -22 l25
-16 -23 -9 c-36 -13 -19 -20 18 -7 l32 11 -22 16 c-33 23 -209 113 -209 107z
m30 -67 c-12 -5 -25 -6 -28 -3 -3 3 0 5 7 5 7 0 10 4 7 9 -4 5 4 7 16 3 l22
-5 -24 -9z"/>
<path d="M1780 2381 c0 -5 13 -11 28 -13 19 -3 29 0 29 9 0 8 -12 13 -29 13
-15 0 -28 -4 -28 -9z"/>
<path d="M1805 2330 c-19 -8 -19 -9 2 -9 12 -1 25 4 28 9 7 12 -2 12 -30 0z"/>
<path d="M2060 2320 c0 -5 12 -10 26 -10 14 0 23 4 19 10 -3 6 -15 10 -26 10
-10 0 -19 -4 -19 -10z"/>
<path d="M1858 2313 c7 -3 16 -2 19 1 4 3 -2 6 -13 5 -11 0 -14 -3 -6 -6z"/>
<path d="M2020 2305 c0 -2 21 -14 48 -26 26 -12 55 -28 65 -37 9 -8 20 -12 25
-7 4 4 1 10 -5 12 -18 7 -16 30 3 41 10 6 13 12 6 16 -6 3 -24 -2 -40 -11 -28
-16 -31 -16 -55 0 -25 16 -47 22 -47 12z"/>
<path d="M2235 2270 c-3 -5 -16 -11 -28 -11 -17 -1 -18 -2 -4 -6 9 -2 17 -9
17 -14 0 -6 -9 -7 -20 -4 -39 12 -20 -20 23 -40 23 -11 44 -22 47 -25 3 -3 22
-13 42 -22 l38 -18 -4 33 c-3 17 -5 34 -6 37 0 3 -7 -6 -15 -20 -9 -16 -14
-19 -15 -9 0 18 19 39 36 39 8 0 12 -18 12 -51 1 -28 3 -54 6 -57 3 -3 6 21 6
54 l0 59 -60 33 c-67 36 -67 36 -75 22z m45 -25 c0 -2 -7 -1 -17 2 -11 4 -14
3 -9 -6 5 -8 19 -10 37 -6 34 8 38 -7 7 -24 -19 -10 -35 -10 -77 -2 -2 1 2 7
8 15 6 8 11 18 10 22 -3 20 2 24 21 14 11 -6 20 -13 20 -15z"/>
<path d="M2362 1548 c-2 -499 -3 -538 -19 -547 -10 -6 -13 -10 -8 -11 35 0 35
6 32 556 l-2 539 -3 -537z"/>
<path d="M2653 1640 c0 -25 2 -35 4 -22 2 12 2 32 0 45 -2 12 -4 2 -4 -23z"/>
<path d="M2650 1030 c0 -5 5 -10 10 -10 6 0 10 5 10 10 0 6 -4 10 -10 10 -5 0
-10 -4 -10 -10z"/>
<path d="M720 628 c0 -9 5 -20 10 -23 6 -3 11 -16 11 -28 1 -16 3 -17 6 -5 2
9 -3 29 -11 45 -10 19 -15 22 -16 11z"/>
<path d="M756 552 c-2 -4 -1 -14 4 -22 7 -11 9 -9 7 8 -1 24 -3 26 -11 14z"/>
</g>
</svg>
